<svg width="95" height="19" viewBox="0 0 95 19" fill="none" xmlns="http://www.w3.org/2000/svg">
<path d="M30.7198 3.36364H32.8505L36.555 12.4091H36.6914L40.396 3.36364H42.5266V15H40.8562V6.57955H40.7482L37.3164 14.983H35.93L32.4982 6.57386H32.3903V15H30.7198V3.36364ZM45.8792 15V3.36364H53.1746V4.875H47.6349V8.42045H52.794V9.92614H47.6349V13.4886H53.2428V15H45.8792ZM56.3198 3.36364H58.4505L62.155 12.4091H62.2914L65.996 3.36364H68.1266V15H66.4562V6.57955H66.3482L62.9164 14.983H61.53L58.0982 6.57386H57.9903V15H56.3198V3.36364Z" fill="#949494"/>
<path d="M82.0644 9.18182C82.0644 10.4621 81.8182 11.5473 81.3258 12.4375C80.8334 13.3277 80.1667 14.0038 79.3258 14.4659C78.4887 14.928 77.5493 15.1591 76.5076 15.1591C75.4621 15.1591 74.5209 14.9261 73.6837 14.4602C72.8466 13.9943 72.1818 13.3182 71.6894 12.4318C71.2008 11.5417 70.9565 10.4583 70.9565 9.18182C70.9565 7.90152 71.2008 6.81629 71.6894 5.92614C72.1818 5.03598 72.8466 4.35985 73.6837 3.89773C74.5209 3.43561 75.4621 3.20455 76.5076 3.20455C77.5493 3.20455 78.4887 3.43561 79.3258 3.89773C80.1667 4.35985 80.8334 5.03598 81.3258 5.92614C81.8182 6.81629 82.0644 7.90152 82.0644 9.18182ZM79.1894 9.18182C79.1894 8.42424 79.0815 7.78409 78.8656 7.26136C78.6534 6.73864 78.3466 6.3428 77.9451 6.07386C77.5474 5.80492 77.0682 5.67045 76.5076 5.67045C75.9508 5.67045 75.4716 5.80492 75.0701 6.07386C74.6686 6.3428 74.3599 6.73864 74.144 7.26136C73.9318 7.78409 73.8258 8.42424 73.8258 9.18182C73.8258 9.93939 73.9318 10.5795 74.144 11.1023C74.3599 11.625 74.6686 12.0208 75.0701 12.2898C75.4716 12.5587 75.9508 12.6932 76.5076 12.6932C77.0682 12.6932 77.5474 12.5587 77.9451 12.2898C78.3466 12.0208 78.6534 11.625 78.8656 11.1023C79.0815 10.5795 79.1894 9.93939 79.1894 9.18182ZM90.7962 6.85227C90.7584 6.43561 90.5898 6.11174 90.2906 5.88068C89.9951 5.64583 89.5728 5.52841 89.0235 5.52841C88.6599 5.52841 88.3568 5.57576 88.1144 5.67045C87.872 5.76515 87.6902 5.89583 87.569 6.0625C87.4478 6.22538 87.3853 6.41288 87.3815 6.625C87.3739 6.79924 87.408 6.95265 87.4837 7.08523C87.5633 7.2178 87.6769 7.33523 87.8246 7.4375C87.9762 7.53598 88.158 7.62311 88.3701 7.69886C88.5822 7.77462 88.8209 7.84091 89.086 7.89773L90.086 8.125C90.6618 8.25 91.1693 8.41667 91.6087 8.625C92.0519 8.83333 92.4231 9.08144 92.7224 9.36932C93.0254 9.6572 93.2546 9.98864 93.4099 10.3636C93.5652 10.7386 93.6447 11.1591 93.6485 11.625C93.6447 12.3598 93.4591 12.9905 93.0917 13.517C92.7243 14.0436 92.1959 14.447 91.5065 14.7273C90.8209 15.0076 89.9932 15.1477 89.0235 15.1477C88.05 15.1477 87.2015 15.0019 86.4781 14.7102C85.7546 14.4186 85.1921 13.9754 84.7906 13.3807C84.389 12.786 84.1826 12.0341 84.1712 11.125H86.8644C86.8871 11.5 86.9875 11.8125 87.1656 12.0625C87.3436 12.3125 87.5879 12.5019 87.8985 12.6307C88.2129 12.7595 88.5765 12.8239 88.9894 12.8239C89.3682 12.8239 89.6902 12.7727 89.9553 12.6705C90.2243 12.5682 90.4307 12.4261 90.5746 12.2443C90.7186 12.0625 90.7924 11.8542 90.7962 11.6193C90.7924 11.3996 90.7243 11.2121 90.5917 11.0568C90.4591 10.8977 90.2546 10.7614 89.9781 10.6477C89.7053 10.5303 89.3568 10.4223 88.9326 10.3239L87.7167 10.0398C86.7091 9.80871 85.9156 9.43561 85.336 8.92045C84.7565 8.40151 84.4686 7.70076 84.4724 6.81818C84.4686 6.09848 84.6618 5.4678 85.0519 4.92614C85.4421 4.38447 85.9818 3.96212 86.6712 3.65909C87.3606 3.35606 88.1466 3.20455 89.0292 3.20455C89.9307 3.20455 90.7129 3.35795 91.3758 3.66477C92.0424 3.9678 92.5595 4.39394 92.9269 4.94318C93.2943 5.49242 93.4818 6.12879 93.4894 6.85227H90.7962Z" fill="#777777"/>
<path d="M4.13144 11.335C4.44932 11.335 4.7307 11.5275 4.89601 11.799C5.22012 12.3313 5.66849 12.7797 6.20084 13.1038C6.47237 13.2691 6.66484 13.5505 6.66484 13.8684V17.2349C6.66484 17.7344 6.2103 18.1136 5.73228 17.9686C3.00754 17.1417 0.858102 14.9923 0.0312686 12.2676C-0.113791 11.7895 0.265402 11.335 0.764953 11.335H4.13144Z" fill="#777777"/>
<path d="M6.66484 2.32355C6.66484 1.824 6.21031 1.4448 5.73228 1.58986C3.00754 2.4167 0.858103 4.56613 0.0312687 7.29087C-0.113791 7.7689 0.265401 8.22343 0.764952 8.22343H4.13143C4.44931 8.22343 4.73069 8.03096 4.896 7.75945C5.22011 7.22709 5.66849 6.77872 6.20084 6.45461C6.47237 6.2893 6.66484 6.00792 6.66484 5.69004V2.32355Z" fill="#777777"/>
<path d="M9.77637 13.8683C9.77637 13.5504 9.96883 13.2691 10.2403 13.1038C10.7727 12.7797 11.221 12.3313 11.5451 11.799C11.7104 11.5275 11.9918 11.335 12.3097 11.335H15.6763C16.1758 11.335 16.555 11.7895 16.4099 12.2676C15.5831 14.9923 13.4337 17.1417 10.7089 17.9686C10.2309 18.1136 9.77637 17.7344 9.77637 17.2349V13.8683Z" fill="#777777"/>
<path d="M10.2403 6.45465C9.96883 6.28934 9.77637 6.00797 9.77637 5.69009V2.32355C9.77637 1.824 10.2309 1.4448 10.7089 1.58986C13.4337 2.4167 15.5831 4.56613 16.4099 7.29087C16.555 7.7689 16.1758 8.22343 15.6763 8.22343H12.3097C11.9918 8.22343 11.7104 8.03096 11.5451 7.75945C11.221 7.22711 10.7727 6.77875 10.2403 6.45465Z" fill="#777777"/>
</svg>
