<svg width="95" height="19" viewBox="0 0 95 19" fill="none" xmlns="http://www.w3.org/2000/svg">
<path d="M30.5891 3.36364H33.1687L36.6232 11.7955H36.7596L40.2141 3.36364H42.7937V15H40.771V7.00568H40.663L37.4471 14.9659H35.9357L32.7198 6.98864H32.6119V15H30.5891V3.36364ZM45.8891 15V3.36364H53.4573V5.13068H47.9971V8.28977H53.0653V10.0568H47.9971V13.233H53.5028V15H45.8891ZM56.4079 3.36364H58.9874L62.442 11.7955H62.5783L66.0329 3.36364H68.6124V15H66.5897V7.00568H66.4817L63.2658 14.9659H61.7545L58.5386 6.98864H58.4306V15H56.4079V3.36364ZM82.1056 9.18182C82.1056 10.4356 81.8708 11.5095 81.4011 12.4034C80.9352 13.2936 80.2988 13.9754 79.492 14.4489C78.6889 14.9223 77.778 15.1591 76.759 15.1591C75.7401 15.1591 74.8272 14.9223 74.0204 14.4489C73.2174 13.9716 72.581 13.2879 72.1113 12.3977C71.6454 11.5038 71.4124 10.4318 71.4124 9.18182C71.4124 7.92803 71.6454 6.85606 72.1113 5.96591C72.581 5.07197 73.2174 4.38826 74.0204 3.91477C74.8272 3.44129 75.7401 3.20455 76.759 3.20455C77.778 3.20455 78.6889 3.44129 79.492 3.91477C80.2988 4.38826 80.9352 5.07197 81.4011 5.96591C81.8708 6.85606 82.1056 7.92803 82.1056 9.18182ZM79.9863 9.18182C79.9863 8.29924 79.848 7.55492 79.5715 6.94886C79.2988 6.33902 78.92 5.87879 78.4352 5.56818C77.9503 5.25379 77.3916 5.09659 76.759 5.09659C76.1264 5.09659 75.5677 5.25379 75.0829 5.56818C74.598 5.87879 74.2174 6.33902 73.9408 6.94886C73.6681 7.55492 73.5317 8.29924 73.5317 9.18182C73.5317 10.0644 73.6681 10.8106 73.9408 11.4205C74.2174 12.0265 74.598 12.4867 75.0829 12.8011C75.5677 13.1117 76.1264 13.267 76.759 13.267C77.3916 13.267 77.9503 13.1117 78.4352 12.8011C78.92 12.4867 79.2988 12.0265 79.5715 11.4205C79.848 10.8106 79.9863 10.0644 79.9863 9.18182ZM91.2224 6.5625C91.1693 6.06629 90.9459 5.67992 90.5519 5.40341C90.1618 5.12689 89.6542 4.98864 89.0292 4.98864C88.5898 4.98864 88.2129 5.05492 87.8985 5.1875C87.5841 5.32008 87.3436 5.5 87.1769 5.72727C87.0103 5.95455 86.925 6.21402 86.9212 6.50568C86.9212 6.74811 86.9762 6.95833 87.086 7.13636C87.1996 7.31439 87.3531 7.46591 87.5462 7.59091C87.7394 7.71212 87.9534 7.81439 88.1883 7.89773C88.4231 7.98106 88.6599 8.05114 88.8985 8.10795L89.9894 8.38068C90.4288 8.48295 90.8512 8.62121 91.2565 8.79545C91.6656 8.9697 92.0311 9.18939 92.3531 9.45455C92.6788 9.7197 92.9364 10.0398 93.1258 10.4148C93.3152 10.7898 93.4099 11.2292 93.4099 11.733C93.4099 12.4148 93.2356 13.0152 92.8871 13.5341C92.5387 14.0492 92.0349 14.4527 91.3758 14.7443C90.7205 15.0322 89.9269 15.1761 88.9951 15.1761C88.0898 15.1761 87.3038 15.036 86.6371 14.7557C85.9743 14.4754 85.4553 14.0663 85.0803 13.5284C84.7091 12.9905 84.5084 12.3352 84.4781 11.5625H86.5519C86.5822 11.9678 86.7072 12.3049 86.9269 12.5739C87.1466 12.8428 87.4326 13.0436 87.7849 13.1761C88.1409 13.3087 88.5387 13.375 88.9781 13.375C89.4364 13.375 89.8379 13.3068 90.1826 13.1705C90.5311 13.0303 90.8038 12.8371 91.0008 12.5909C91.1978 12.3409 91.2981 12.0492 91.3019 11.7159C91.2981 11.4129 91.2091 11.1629 91.0349 10.9659C90.8606 10.7652 90.6163 10.5985 90.3019 10.4659C89.9913 10.3295 89.6277 10.2083 89.211 10.1023L87.8871 9.76136C86.9288 9.51515 86.1712 9.14205 85.6144 8.64205C85.0614 8.13826 84.7849 7.4697 84.7849 6.63636C84.7849 5.95076 84.9705 5.35038 85.3417 4.83523C85.7167 4.32008 86.2262 3.92045 86.8701 3.63636C87.514 3.34848 88.2432 3.20455 89.0576 3.20455C89.8834 3.20455 90.6068 3.34848 91.2281 3.63636C91.8531 3.92045 92.3436 4.31629 92.6996 4.82386C93.0557 5.32765 93.2394 5.9072 93.2508 6.5625H91.2224Z" fill="#777777"/>
<path d="M4.13144 11.335C4.44932 11.335 4.7307 11.5274 4.89601 11.7989C5.22012 12.3313 5.66849 12.7797 6.20084 13.1038C6.47237 13.2691 6.66484 13.5505 6.66484 13.8683V17.2348C6.66484 17.7344 6.2103 18.1136 5.73228 17.9685C3.00754 17.1417 0.858102 14.9923 0.0312686 12.2675C-0.113791 11.7895 0.265402 11.335 0.764953 11.335H4.13144Z" fill="#777777"/>
<path d="M6.66484 2.32355C6.66484 1.824 6.21031 1.4448 5.73228 1.58986C3.00754 2.4167 0.858103 4.56613 0.0312687 7.29087C-0.113791 7.7689 0.265401 8.22343 0.764952 8.22343H4.13143C4.44931 8.22343 4.73069 8.03096 4.896 7.75945C5.22011 7.22709 5.66849 6.77871 6.20084 6.45461C6.47237 6.2893 6.66484 6.00792 6.66484 5.69004V2.32355Z" fill="#777777"/>
<path d="M9.77637 13.8683C9.77637 13.5504 9.96883 13.269 10.2403 13.1037C10.7727 12.7796 11.221 12.3313 11.5451 11.7989C11.7104 11.5274 11.9918 11.335 12.3097 11.335H15.6763C16.1758 11.335 16.555 11.7895 16.4099 12.2675C15.5831 14.9923 13.4337 17.1417 10.7089 17.9685C10.2309 18.1136 9.77637 17.7344 9.77637 17.2348V13.8683Z" fill="#777777"/>
<path d="M10.2403 6.45465C9.96883 6.28934 9.77637 6.00797 9.77637 5.69009V2.32355C9.77637 1.824 10.2309 1.4448 10.7089 1.58986C13.4337 2.4167 15.5831 4.56613 16.4099 7.29087C16.555 7.7689 16.1758 8.22343 15.6763 8.22343H12.3097C11.9918 8.22343 11.7104 8.03096 11.5451 7.75945C11.221 7.22711 10.7727 6.77875 10.2403 6.45465Z" fill="#777777"/>
</svg>
