<svg width="346" height="150" viewBox="0 0 346 150" fill="none" xmlns="http://www.w3.org/2000/svg">
<rect width="346" height="150" fill="#3E3C3D"/>
<ellipse cx="65" cy="74.5" rx="53" ry="53.5" fill="#141213"/>
<ellipse cx="173" cy="74.5" rx="53" ry="53.5" fill="#141213"/>
<ellipse cx="281" cy="74.5" rx="53" ry="53.5" fill="#141213"/>
<rect x="316" y="120" width="30" height="30" fill="#7A7A7A"/>
<rect x="316" width="30" height="30" fill="#7A7A7A"/>
<path d="M0 120H30V150H0V120Z" fill="#7A7A7A"/>
<path d="M0 0H30V30H0V0Z" fill="#7A7A7A"/>
<path fill-rule="evenodd" clip-rule="evenodd" d="M0 0H346V150H0V0ZM13 7C13 9.76143 10.7614 12 8 12C5.23858 12 3 9.76143 3 7C3 4.23857 5.23858 2 8 2C10.7614 2 13 4.23857 13 7ZM23 12C25.7614 12 28 9.76143 28 7C28 4.23857 25.7614 2 23 2C20.2386 2 18 4.23857 18 7C18 9.76143 20.2386 12 23 12ZM43 7C43 9.76143 40.7614 12 38 12C35.2386 12 33 9.76143 33 7C33 4.23857 35.2386 2 38 2C40.7614 2 43 4.23857 43 7ZM53 12C55.7614 12 58 9.76143 58 7C58 4.23857 55.7614 2 53 2C50.2386 2 48 4.23857 48 7C48 9.76143 50.2386 12 53 12ZM73 7C73 9.76143 70.7614 12 68 12C65.2386 12 63 9.76143 63 7C63 4.23857 65.2386 2 68 2C70.7614 2 73 4.23857 73 7ZM83 12C85.7614 12 88 9.76143 88 7C88 4.23857 85.7614 2 83 2C80.2386 2 78 4.23857 78 7C78 9.76143 80.2386 12 83 12ZM103 7C103 9.76143 100.761 12 98 12C95.2386 12 93 9.76143 93 7C93 4.23857 95.2386 2 98 2C100.761 2 103 4.23857 103 7ZM113 12C115.761 12 118 9.76143 118 7C118 4.23857 115.761 2 113 2C110.239 2 108 4.23857 108 7C108 9.76143 110.239 12 113 12ZM133 7C133 9.76143 130.761 12 128 12C125.239 12 123 9.76143 123 7C123 4.23857 125.239 2 128 2C130.761 2 133 4.23857 133 7ZM143 12C145.761 12 148 9.76143 148 7C148 4.23857 145.761 2 143 2C140.239 2 138 4.23857 138 7C138 9.76143 140.239 12 143 12ZM13 22C13 24.7614 10.7614 27 8 27C5.23858 27 3 24.7614 3 22C3 19.2386 5.23858 17 8 17C10.7614 17 13 19.2386 13 22ZM23 27C25.7614 27 28 24.7614 28 22C28 19.2386 25.7614 17 23 17C20.2386 17 18 19.2386 18 22C18 24.7614 20.2386 27 23 27ZM43 22C43 24.7614 40.7614 27 38 27C35.2386 27 33 24.7614 33 22C33 19.2386 35.2386 17 38 17C40.7614 17 43 19.2386 43 22ZM53 27C55.7614 27 58 24.7614 58 22C58 19.2386 55.7614 17 53 17C50.2386 17 48 19.2386 48 22C48 24.7614 50.2386 27 53 27ZM73 22C73 24.7614 70.7614 27 68 27C65.2386 27 63 24.7614 63 22C63 19.2386 65.2386 17 68 17C70.7614 17 73 19.2386 73 22ZM83 27C85.7614 27 88 24.7614 88 22C88 19.2386 85.7614 17 83 17C80.2386 17 78 19.2386 78 22C78 24.7614 80.2386 27 83 27ZM103 22C103 24.7614 100.761 27 98 27C95.2386 27 93 24.7614 93 22C93 19.2386 95.2386 17 98 17C100.761 17 103 19.2386 103 22ZM113 27C115.761 27 118 24.7614 118 22C118 19.2386 115.761 17 113 17C110.239 17 108 19.2386 108 22C108 24.7614 110.239 27 113 27ZM133 22C133 24.7614 130.761 27 128 27C125.239 27 123 24.7614 123 22C123 19.2386 125.239 17 128 17C130.761 17 133 19.2386 133 22ZM143 27C145.761 27 148 24.7614 148 22C148 19.2386 145.761 17 143 17C140.239 17 138 19.2386 138 22C138 24.7614 140.239 27 143 27ZM13 37C13 39.7614 10.7614 42 8 42C5.23858 42 3 39.7614 3 37C3 34.2386 5.23858 32 8 32C10.7614 32 13 34.2386 13 37ZM23 42C25.7614 42 28 39.7614 28 37C28 34.2386 25.7614 32 23 32C20.2386 32 18 34.2386 18 37C18 39.7614 20.2386 42 23 42ZM43 37C43 39.7614 40.7614 42 38 42C35.2386 42 33 39.7614 33 37C33 34.2386 35.2386 32 38 32C40.7614 32 43 34.2386 43 37ZM53 42C55.7614 42 58 39.7614 58 37C58 34.2386 55.7614 32 53 32C50.2386 32 48 34.2386 48 37C48 39.7614 50.2386 42 53 42ZM73 37C73 39.7614 70.7614 42 68 42C65.2386 42 63 39.7614 63 37C63 34.2386 65.2386 32 68 32C70.7614 32 73 34.2386 73 37ZM83 42C85.7614 42 88 39.7614 88 37C88 34.2386 85.7614 32 83 32C80.2386 32 78 34.2386 78 37C78 39.7614 80.2386 42 83 42ZM103 37C103 39.7614 100.761 42 98 42C95.2386 42 93 39.7614 93 37C93 34.2386 95.2386 32 98 32C100.761 32 103 34.2386 103 37ZM113 42C115.761 42 118 39.7614 118 37C118 34.2386 115.761 32 113 32C110.239 32 108 34.2386 108 37C108 39.7614 110.239 42 113 42ZM133 37C133 39.7614 130.761 42 128 42C125.239 42 123 39.7614 123 37C123 34.2386 125.239 32 128 32C130.761 32 133 34.2386 133 37ZM143 42C145.761 42 148 39.7614 148 37C148 34.2386 145.761 32 143 32C140.239 32 138 34.2386 138 37C138 39.7614 140.239 42 143 42ZM13 52C13 54.7614 10.7614 57 8 57C5.23858 57 3 54.7614 3 52C3 49.2386 5.23858 47 8 47C10.7614 47 13 49.2386 13 52ZM23 57C25.7614 57 28 54.7614 28 52C28 49.2386 25.7614 47 23 47C20.2386 47 18 49.2386 18 52C18 54.7614 20.2386 57 23 57ZM43 52C43 54.7614 40.7614 57 38 57C35.2386 57 33 54.7614 33 52C33 49.2386 35.2386 47 38 47C40.7614 47 43 49.2386 43 52ZM53 57C55.7614 57 58 54.7614 58 52C58 49.2386 55.7614 47 53 47C50.2386 47 48 49.2386 48 52C48 54.7614 50.2386 57 53 57ZM73 52C73 54.7614 70.7614 57 68 57C65.2386 57 63 54.7614 63 52C63 49.2386 65.2386 47 68 47C70.7614 47 73 49.2386 73 52ZM83 57C85.7614 57 88 54.7614 88 52C88 49.2386 85.7614 47 83 47C80.2386 47 78 49.2386 78 52C78 54.7614 80.2386 57 83 57ZM103 52C103 54.7614 100.761 57 98 57C95.2386 57 93 54.7614 93 52C93 49.2386 95.2386 47 98 47C100.761 47 103 49.2386 103 52ZM113 57C115.761 57 118 54.7614 118 52C118 49.2386 115.761 47 113 47C110.239 47 108 49.2386 108 52C108 54.7614 110.239 57 113 57ZM133 52C133 54.7614 130.761 57 128 57C125.239 57 123 54.7614 123 52C123 49.2386 125.239 47 128 47C130.761 47 133 49.2386 133 52ZM143 57C145.761 57 148 54.7614 148 52C148 49.2386 145.761 47 143 47C140.239 47 138 49.2386 138 52C138 54.7614 140.239 57 143 57ZM13 67C13 69.7614 10.7614 72 8 72C5.23858 72 3 69.7614 3 67C3 64.2386 5.23858 62 8 62C10.7614 62 13 64.2386 13 67ZM23 72C25.7614 72 28 69.7614 28 67C28 64.2386 25.7614 62 23 62C20.2386 62 18 64.2386 18 67C18 69.7614 20.2386 72 23 72ZM43 67C43 69.7614 40.7614 72 38 72C35.2386 72 33 69.7614 33 67C33 64.2386 35.2386 62 38 62C40.7614 62 43 64.2386 43 67ZM53 72C55.7614 72 58 69.7614 58 67C58 64.2386 55.7614 62 53 62C50.2386 62 48 64.2386 48 67C48 69.7614 50.2386 72 53 72ZM73 67C73 69.7614 70.7614 72 68 72C65.2386 72 63 69.7614 63 67C63 64.2386 65.2386 62 68 62C70.7614 62 73 64.2386 73 67ZM83 72C85.7614 72 88 69.7614 88 67C88 64.2386 85.7614 62 83 62C80.2386 62 78 64.2386 78 67C78 69.7614 80.2386 72 83 72ZM103 67C103 69.7614 100.761 72 98 72C95.2386 72 93 69.7614 93 67C93 64.2386 95.2386 62 98 62C100.761 62 103 64.2386 103 67ZM113 72C115.761 72 118 69.7614 118 67C118 64.2386 115.761 62 113 62C110.239 62 108 64.2386 108 67C108 69.7614 110.239 72 113 72ZM133 67C133 69.7614 130.761 72 128 72C125.239 72 123 69.7614 123 67C123 64.2386 125.239 62 128 62C130.761 62 133 64.2386 133 67ZM143 72C145.761 72 148 69.7614 148 67C148 64.2386 145.761 62 143 62C140.239 62 138 64.2386 138 67C138 69.7614 140.239 72 143 72ZM13 82C13 84.7614 10.7614 87 8 87C5.23858 87 3 84.7614 3 82C3 79.2386 5.23858 77 8 77C10.7614 77 13 79.2386 13 82ZM23 87C25.7614 87 28 84.7614 28 82C28 79.2386 25.7614 77 23 77C20.2386 77 18 79.2386 18 82C18 84.7614 20.2386 87 23 87ZM43 82C43 84.7614 40.7614 87 38 87C35.2386 87 33 84.7614 33 82C33 79.2386 35.2386 77 38 77C40.7614 77 43 79.2386 43 82ZM53 87C55.7614 87 58 84.7614 58 82C58 79.2386 55.7614 77 53 77C50.2386 77 48 79.2386 48 82C48 84.7614 50.2386 87 53 87ZM73 82C73 84.7614 70.7614 87 68 87C65.2386 87 63 84.7614 63 82C63 79.2386 65.2386 77 68 77C70.7614 77 73 79.2386 73 82ZM83 87C85.7614 87 88 84.7614 88 82C88 79.2386 85.7614 77 83 77C80.2386 77 78 79.2386 78 82C78 84.7614 80.2386 87 83 87ZM103 82C103 84.7614 100.761 87 98 87C95.2386 87 93 84.7614 93 82C93 79.2386 95.2386 77 98 77C100.761 77 103 79.2386 103 82ZM113 87C115.761 87 118 84.7614 118 82C118 79.2386 115.761 77 113 77C110.239 77 108 79.2386 108 82C108 84.7614 110.239 87 113 87ZM133 82C133 84.7614 130.761 87 128 87C125.239 87 123 84.7614 123 82C123 79.2386 125.239 77 128 77C130.761 77 133 79.2386 133 82ZM143 87C145.761 87 148 84.7614 148 82C148 79.2386 145.761 77 143 77C140.239 77 138 79.2386 138 82C138 84.7614 140.239 87 143 87ZM13 97C13 99.7614 10.7614 102 8 102C5.23858 102 3 99.7614 3 97C3 94.2386 5.23858 92 8 92C10.7614 92 13 94.2386 13 97ZM23 102C25.7614 102 28 99.7614 28 97C28 94.2386 25.7614 92 23 92C20.2386 92 18 94.2386 18 97C18 99.7614 20.2386 102 23 102ZM43 97C43 99.7614 40.7614 102 38 102C35.2386 102 33 99.7614 33 97C33 94.2386 35.2386 92 38 92C40.7614 92 43 94.2386 43 97ZM53 102C55.7614 102 58 99.7614 58 97C58 94.2386 55.7614 92 53 92C50.2386 92 48 94.2386 48 97C48 99.7614 50.2386 102 53 102ZM73 97C73 99.7614 70.7614 102 68 102C65.2386 102 63 99.7614 63 97C63 94.2386 65.2386 92 68 92C70.7614 92 73 94.2386 73 97ZM83 102C85.7614 102 88 99.7614 88 97C88 94.2386 85.7614 92 83 92C80.2386 92 78 94.2386 78 97C78 99.7614 80.2386 102 83 102ZM103 97C103 99.7614 100.761 102 98 102C95.2386 102 93 99.7614 93 97C93 94.2386 95.2386 92 98 92C100.761 92 103 94.2386 103 97ZM113 102C115.761 102 118 99.7614 118 97C118 94.2386 115.761 92 113 92C110.239 92 108 94.2386 108 97C108 99.7614 110.239 102 113 102ZM133 97C133 99.7614 130.761 102 128 102C125.239 102 123 99.7614 123 97C123 94.2386 125.239 92 128 92C130.761 92 133 94.2386 133 97ZM143 102C145.761 102 148 99.7614 148 97C148 94.2386 145.761 92 143 92C140.239 92 138 94.2386 138 97C138 99.7614 140.239 102 143 102ZM13 112C13 114.761 10.7614 117 8 117C5.23858 117 3 114.761 3 112C3 109.239 5.23858 107 8 107C10.7614 107 13 109.239 13 112ZM23 117C25.7614 117 28 114.761 28 112C28 109.239 25.7614 107 23 107C20.2386 107 18 109.239 18 112C18 114.761 20.2386 117 23 117ZM43 112C43 114.761 40.7614 117 38 117C35.2386 117 33 114.761 33 112C33 109.239 35.2386 107 38 107C40.7614 107 43 109.239 43 112ZM53 117C55.7614 117 58 114.761 58 112C58 109.239 55.7614 107 53 107C50.2386 107 48 109.239 48 112C48 114.761 50.2386 117 53 117ZM73 112C73 114.761 70.7614 117 68 117C65.2386 117 63 114.761 63 112C63 109.239 65.2386 107 68 107C70.7614 107 73 109.239 73 112ZM83 117C85.7614 117 88 114.761 88 112C88 109.239 85.7614 107 83 107C80.2386 107 78 109.239 78 112C78 114.761 80.2386 117 83 117ZM103 112C103 114.761 100.761 117 98 117C95.2386 117 93 114.761 93 112C93 109.239 95.2386 107 98 107C100.761 107 103 109.239 103 112ZM113 117C115.761 117 118 114.761 118 112C118 109.239 115.761 107 113 107C110.239 107 108 109.239 108 112C108 114.761 110.239 117 113 117ZM133 112C133 114.761 130.761 117 128 117C125.239 117 123 114.761 123 112C123 109.239 125.239 107 128 107C130.761 107 133 109.239 133 112ZM143 117C145.761 117 148 114.761 148 112C148 109.239 145.761 107 143 107C140.239 107 138 109.239 138 112C138 114.761 140.239 117 143 117ZM13 127C13 129.761 10.7614 132 8 132C5.23858 132 3 129.761 3 127C3 124.239 5.23858 122 8 122C10.7614 122 13 124.239 13 127ZM23 132C25.7614 132 28 129.761 28 127C28 124.239 25.7614 122 23 122C20.2386 122 18 124.239 18 127C18 129.761 20.2386 132 23 132ZM43 127C43 129.761 40.7614 132 38 132C35.2386 132 33 129.761 33 127C33 124.239 35.2386 122 38 122C40.7614 122 43 124.239 43 127ZM53 132C55.7614 132 58 129.761 58 127C58 124.239 55.7614 122 53 122C50.2386 122 48 124.239 48 127C48 129.761 50.2386 132 53 132ZM73 127C73 129.761 70.7614 132 68 132C65.2386 132 63 129.761 63 127C63 124.239 65.2386 122 68 122C70.7614 122 73 124.239 73 127ZM83 132C85.7614 132 88 129.761 88 127C88 124.239 85.7614 122 83 122C80.2386 122 78 124.239 78 127C78 129.761 80.2386 132 83 132ZM103 127C103 129.761 100.761 132 98 132C95.2386 132 93 129.761 93 127C93 124.239 95.2386 122 98 122C100.761 122 103 124.239 103 127ZM113 132C115.761 132 118 129.761 118 127C118 124.239 115.761 122 113 122C110.239 122 108 124.239 108 127C108 129.761 110.239 132 113 132ZM133 127C133 129.761 130.761 132 128 132C125.239 132 123 129.761 123 127C123 124.239 125.239 122 128 122C130.761 122 133 124.239 133 127ZM143 132C145.761 132 148 129.761 148 127C148 124.239 145.761 122 143 122C140.239 122 138 124.239 138 127C138 129.761 140.239 132 143 132ZM13 142C13 144.761 10.7614 147 8 147C5.23858 147 3 144.761 3 142C3 139.239 5.23858 137 8 137C10.7614 137 13 139.239 13 142ZM23 147C25.7614 147 28 144.761 28 142C28 139.239 25.7614 137 23 137C20.2386 137 18 139.239 18 142C18 144.761 20.2386 147 23 147ZM43 142C43 144.761 40.7614 147 38 147C35.2386 147 33 144.761 33 142C33 139.239 35.2386 137 38 137C40.7614 137 43 139.239 43 142ZM53 147C55.7614 147 58 144.761 58 142C58 139.239 55.7614 137 53 137C50.2386 137 48 139.239 48 142C48 144.761 50.2386 147 53 147ZM73 142C73 144.761 70.7614 147 68 147C65.2386 147 63 144.761 63 142C63 139.239 65.2386 137 68 137C70.7614 137 73 139.239 73 142ZM83 147C85.7614 147 88 144.761 88 142C88 139.239 85.7614 137 83 137C80.2386 137 78 139.239 78 142C78 144.761 80.2386 147 83 147ZM103 142C103 144.761 100.761 147 98 147C95.2386 147 93 144.761 93 142C93 139.239 95.2386 137 98 137C100.761 137 103 139.239 103 142ZM113 147C115.761 147 118 144.761 118 142C118 139.239 115.761 137 113 137C110.239 137 108 139.239 108 142C108 144.761 110.239 147 113 147ZM133 142C133 144.761 130.761 147 128 147C125.239 147 123 144.761 123 142C123 139.239 125.239 137 128 137C130.761 137 133 139.239 133 142ZM143 147C145.761 147 148 144.761 148 142C148 139.239 145.761 137 143 137C140.239 137 138 139.239 138 142C138 144.761 140.239 147 143 147ZM163 7C163 9.76143 160.761 12 158 12C155.239 12 153 9.76143 153 7C153 4.23857 155.239 2 158 2C160.761 2 163 4.23857 163 7ZM173 12C175.761 12 178 9.76143 178 7C178 4.23857 175.761 2 173 2C170.239 2 168 4.23857 168 7C168 9.76143 170.239 12 173 12ZM193 7C193 9.76143 190.761 12 188 12C185.239 12 183 9.76143 183 7C183 4.23857 185.239 2 188 2C190.761 2 193 4.23857 193 7ZM203 12C205.761 12 208 9.76143 208 7C208 4.23857 205.761 2 203 2C200.239 2 198 4.23857 198 7C198 9.76143 200.239 12 203 12ZM223 7C223 9.76143 220.761 12 218 12C215.239 12 213 9.76143 213 7C213 4.23857 215.239 2 218 2C220.761 2 223 4.23857 223 7ZM233 12C235.761 12 238 9.76143 238 7C238 4.23857 235.761 2 233 2C230.239 2 228 4.23857 228 7C228 9.76143 230.239 12 233 12ZM253 7C253 9.76143 250.761 12 248 12C245.239 12 243 9.76143 243 7C243 4.23857 245.239 2 248 2C250.761 2 253 4.23857 253 7ZM263 12C265.761 12 268 9.76143 268 7C268 4.23857 265.761 2 263 2C260.239 2 258 4.23857 258 7C258 9.76143 260.239 12 263 12ZM313 7C313 9.76143 310.761 12 308 12C305.239 12 303 9.76143 303 7C303 4.23857 305.239 2 308 2C310.761 2 313 4.23857 313 7ZM278 12C280.761 12 283 9.76143 283 7C283 4.23857 280.761 2 278 2C275.239 2 273 4.23857 273 7C273 9.76143 275.239 12 278 12ZM328 7C328 9.76143 325.761 12 323 12C320.239 12 318 9.76143 318 7C318 4.23857 320.239 2 323 2C325.761 2 328 4.23857 328 7ZM293 12C295.761 12 298 9.76143 298 7C298 4.23857 295.761 2 293 2C290.239 2 288 4.23857 288 7C288 9.76143 290.239 12 293 12ZM343 7C343 9.76143 340.761 12 338 12C335.239 12 333 9.76143 333 7C333 4.23857 335.239 2 338 2C340.761 2 343 4.23857 343 7ZM158 27C160.761 27 163 24.7614 163 22C163 19.2386 160.761 17 158 17C155.239 17 153 19.2386 153 22C153 24.7614 155.239 27 158 27ZM178 22C178 24.7614 175.761 27 173 27C170.239 27 168 24.7614 168 22C168 19.2386 170.239 17 173 17C175.761 17 178 19.2386 178 22ZM188 27C190.761 27 193 24.7614 193 22C193 19.2386 190.761 17 188 17C185.239 17 183 19.2386 183 22C183 24.7614 185.239 27 188 27ZM208 22C208 24.7614 205.761 27 203 27C200.239 27 198 24.7614 198 22C198 19.2386 200.239 17 203 17C205.761 17 208 19.2386 208 22ZM218 27C220.761 27 223 24.7614 223 22C223 19.2386 220.761 17 218 17C215.239 17 213 19.2386 213 22C213 24.7614 215.239 27 218 27ZM238 22C238 24.7614 235.761 27 233 27C230.239 27 228 24.7614 228 22C228 19.2386 230.239 17 233 17C235.761 17 238 19.2386 238 22ZM248 27C250.761 27 253 24.7614 253 22C253 19.2386 250.761 17 248 17C245.239 17 243 19.2386 243 22C243 24.7614 245.239 27 248 27ZM268 22C268 24.7614 265.761 27 263 27C260.239 27 258 24.7614 258 22C258 19.2386 260.239 17 263 17C265.761 17 268 19.2386 268 22ZM308 27C310.761 27 313 24.7614 313 22C313 19.2386 310.761 17 308 17C305.239 17 303 19.2386 303 22C303 24.7614 305.239 27 308 27ZM283 22C283 24.7614 280.761 27 278 27C275.239 27 273 24.7614 273 22C273 19.2386 275.239 17 278 17C280.761 17 283 19.2386 283 22ZM323 27C325.761 27 328 24.7614 328 22C328 19.2386 325.761 17 323 17C320.239 17 318 19.2386 318 22C318 24.7614 320.239 27 323 27ZM298 22C298 24.7614 295.761 27 293 27C290.239 27 288 24.7614 288 22C288 19.2386 290.239 17 293 17C295.761 17 298 19.2386 298 22ZM338 27C340.761 27 343 24.7614 343 22C343 19.2386 340.761 17 338 17C335.239 17 333 19.2386 333 22C333 24.7614 335.239 27 338 27ZM163 37C163 39.7614 160.761 42 158 42C155.239 42 153 39.7614 153 37C153 34.2386 155.239 32 158 32C160.761 32 163 34.2386 163 37ZM173 42C175.761 42 178 39.7614 178 37C178 34.2386 175.761 32 173 32C170.239 32 168 34.2386 168 37C168 39.7614 170.239 42 173 42ZM193 37C193 39.7614 190.761 42 188 42C185.239 42 183 39.7614 183 37C183 34.2386 185.239 32 188 32C190.761 32 193 34.2386 193 37ZM203 42C205.761 42 208 39.7614 208 37C208 34.2386 205.761 32 203 32C200.239 32 198 34.2386 198 37C198 39.7614 200.239 42 203 42ZM223 37C223 39.7614 220.761 42 218 42C215.239 42 213 39.7614 213 37C213 34.2386 215.239 32 218 32C220.761 32 223 34.2386 223 37ZM233 42C235.761 42 238 39.7614 238 37C238 34.2386 235.761 32 233 32C230.239 32 228 34.2386 228 37C228 39.7614 230.239 42 233 42ZM253 37C253 39.7614 250.761 42 248 42C245.239 42 243 39.7614 243 37C243 34.2386 245.239 32 248 32C250.761 32 253 34.2386 253 37ZM263 42C265.761 42 268 39.7614 268 37C268 34.2386 265.761 32 263 32C260.239 32 258 34.2386 258 37C258 39.7614 260.239 42 263 42ZM313 37C313 39.7614 310.761 42 308 42C305.239 42 303 39.7614 303 37C303 34.2386 305.239 32 308 32C310.761 32 313 34.2386 313 37ZM278 42C280.761 42 283 39.7614 283 37C283 34.2386 280.761 32 278 32C275.239 32 273 34.2386 273 37C273 39.7614 275.239 42 278 42ZM328 37C328 39.7614 325.761 42 323 42C320.239 42 318 39.7614 318 37C318 34.2386 320.239 32 323 32C325.761 32 328 34.2386 328 37ZM293 42C295.761 42 298 39.7614 298 37C298 34.2386 295.761 32 293 32C290.239 32 288 34.2386 288 37C288 39.7614 290.239 42 293 42ZM343 37C343 39.7614 340.761 42 338 42C335.239 42 333 39.7614 333 37C333 34.2386 335.239 32 338 32C340.761 32 343 34.2386 343 37ZM158 57C160.761 57 163 54.7614 163 52C163 49.2386 160.761 47 158 47C155.239 47 153 49.2386 153 52C153 54.7614 155.239 57 158 57ZM178 52C178 54.7614 175.761 57 173 57C170.239 57 168 54.7614 168 52C168 49.2386 170.239 47 173 47C175.761 47 178 49.2386 178 52ZM188 57C190.761 57 193 54.7614 193 52C193 49.2386 190.761 47 188 47C185.239 47 183 49.2386 183 52C183 54.7614 185.239 57 188 57ZM208 52C208 54.7614 205.761 57 203 57C200.239 57 198 54.7614 198 52C198 49.2386 200.239 47 203 47C205.761 47 208 49.2386 208 52ZM218 57C220.761 57 223 54.7614 223 52C223 49.2386 220.761 47 218 47C215.239 47 213 49.2386 213 52C213 54.7614 215.239 57 218 57ZM238 52C238 54.7614 235.761 57 233 57C230.239 57 228 54.7614 228 52C228 49.2386 230.239 47 233 47C235.761 47 238 49.2386 238 52ZM248 57C250.761 57 253 54.7614 253 52C253 49.2386 250.761 47 248 47C245.239 47 243 49.2386 243 52C243 54.7614 245.239 57 248 57ZM268 52C268 54.7614 265.761 57 263 57C260.239 57 258 54.7614 258 52C258 49.2386 260.239 47 263 47C265.761 47 268 49.2386 268 52ZM308 57C310.761 57 313 54.7614 313 52C313 49.2386 310.761 47 308 47C305.239 47 303 49.2386 303 52C303 54.7614 305.239 57 308 57ZM283 52C283 54.7614 280.761 57 278 57C275.239 57 273 54.7614 273 52C273 49.2386 275.239 47 278 47C280.761 47 283 49.2386 283 52ZM323 57C325.761 57 328 54.7614 328 52C328 49.2386 325.761 47 323 47C320.239 47 318 49.2386 318 52C318 54.7614 320.239 57 323 57ZM298 52C298 54.7614 295.761 57 293 57C290.239 57 288 54.7614 288 52C288 49.2386 290.239 47 293 47C295.761 47 298 49.2386 298 52ZM338 57C340.761 57 343 54.7614 343 52C343 49.2386 340.761 47 338 47C335.239 47 333 49.2386 333 52C333 54.7614 335.239 57 338 57ZM163 67C163 69.7614 160.761 72 158 72C155.239 72 153 69.7614 153 67C153 64.2386 155.239 62 158 62C160.761 62 163 64.2386 163 67ZM173 72C175.761 72 178 69.7614 178 67C178 64.2386 175.761 62 173 62C170.239 62 168 64.2386 168 67C168 69.7614 170.239 72 173 72ZM193 67C193 69.7614 190.761 72 188 72C185.239 72 183 69.7614 183 67C183 64.2386 185.239 62 188 62C190.761 62 193 64.2386 193 67ZM203 72C205.761 72 208 69.7614 208 67C208 64.2386 205.761 62 203 62C200.239 62 198 64.2386 198 67C198 69.7614 200.239 72 203 72ZM223 67C223 69.7614 220.761 72 218 72C215.239 72 213 69.7614 213 67C213 64.2386 215.239 62 218 62C220.761 62 223 64.2386 223 67ZM233 72C235.761 72 238 69.7614 238 67C238 64.2386 235.761 62 233 62C230.239 62 228 64.2386 228 67C228 69.7614 230.239 72 233 72ZM253 67C253 69.7614 250.761 72 248 72C245.239 72 243 69.7614 243 67C243 64.2386 245.239 62 248 62C250.761 62 253 64.2386 253 67ZM263 72C265.761 72 268 69.7614 268 67C268 64.2386 265.761 62 263 62C260.239 62 258 64.2386 258 67C258 69.7614 260.239 72 263 72ZM313 67C313 69.7614 310.761 72 308 72C305.239 72 303 69.7614 303 67C303 64.2386 305.239 62 308 62C310.761 62 313 64.2386 313 67ZM278 72C280.761 72 283 69.7614 283 67C283 64.2386 280.761 62 278 62C275.239 62 273 64.2386 273 67C273 69.7614 275.239 72 278 72ZM328 67C328 69.7614 325.761 72 323 72C320.239 72 318 69.7614 318 67C318 64.2386 320.239 62 323 62C325.761 62 328 64.2386 328 67ZM293 72C295.761 72 298 69.7614 298 67C298 64.2386 295.761 62 293 62C290.239 62 288 64.2386 288 67C288 69.7614 290.239 72 293 72ZM343 67C343 69.7614 340.761 72 338 72C335.239 72 333 69.7614 333 67C333 64.2386 335.239 62 338 62C340.761 62 343 64.2386 343 67ZM158 87C160.761 87 163 84.7614 163 82C163 79.2386 160.761 77 158 77C155.239 77 153 79.2386 153 82C153 84.7614 155.239 87 158 87ZM178 82C178 84.7614 175.761 87 173 87C170.239 87 168 84.7614 168 82C168 79.2386 170.239 77 173 77C175.761 77 178 79.2386 178 82ZM188 87C190.761 87 193 84.7614 193 82C193 79.2386 190.761 77 188 77C185.239 77 183 79.2386 183 82C183 84.7614 185.239 87 188 87ZM208 82C208 84.7614 205.761 87 203 87C200.239 87 198 84.7614 198 82C198 79.2386 200.239 77 203 77C205.761 77 208 79.2386 208 82ZM218 87C220.761 87 223 84.7614 223 82C223 79.2386 220.761 77 218 77C215.239 77 213 79.2386 213 82C213 84.7614 215.239 87 218 87ZM238 82C238 84.7614 235.761 87 233 87C230.239 87 228 84.7614 228 82C228 79.2386 230.239 77 233 77C235.761 77 238 79.2386 238 82ZM248 87C250.761 87 253 84.7614 253 82C253 79.2386 250.761 77 248 77C245.239 77 243 79.2386 243 82C243 84.7614 245.239 87 248 87ZM268 82C268 84.7614 265.761 87 263 87C260.239 87 258 84.7614 258 82C258 79.2386 260.239 77 263 77C265.761 77 268 79.2386 268 82ZM308 87C310.761 87 313 84.7614 313 82C313 79.2386 310.761 77 308 77C305.239 77 303 79.2386 303 82C303 84.7614 305.239 87 308 87ZM283 82C283 84.7614 280.761 87 278 87C275.239 87 273 84.7614 273 82C273 79.2386 275.239 77 278 77C280.761 77 283 79.2386 283 82ZM323 87C325.761 87 328 84.7614 328 82C328 79.2386 325.761 77 323 77C320.239 77 318 79.2386 318 82C318 84.7614 320.239 87 323 87ZM298 82C298 84.7614 295.761 87 293 87C290.239 87 288 84.7614 288 82C288 79.2386 290.239 77 293 77C295.761 77 298 79.2386 298 82ZM338 87C340.761 87 343 84.7614 343 82C343 79.2386 340.761 77 338 77C335.239 77 333 79.2386 333 82C333 84.7614 335.239 87 338 87ZM163 97C163 99.7614 160.761 102 158 102C155.239 102 153 99.7614 153 97C153 94.2386 155.239 92 158 92C160.761 92 163 94.2386 163 97ZM173 102C175.761 102 178 99.7614 178 97C178 94.2386 175.761 92 173 92C170.239 92 168 94.2386 168 97C168 99.7614 170.239 102 173 102ZM193 97C193 99.7614 190.761 102 188 102C185.239 102 183 99.7614 183 97C183 94.2386 185.239 92 188 92C190.761 92 193 94.2386 193 97ZM203 102C205.761 102 208 99.7614 208 97C208 94.2386 205.761 92 203 92C200.239 92 198 94.2386 198 97C198 99.7614 200.239 102 203 102ZM223 97C223 99.7614 220.761 102 218 102C215.239 102 213 99.7614 213 97C213 94.2386 215.239 92 218 92C220.761 92 223 94.2386 223 97ZM233 102C235.761 102 238 99.7614 238 97C238 94.2386 235.761 92 233 92C230.239 92 228 94.2386 228 97C228 99.7614 230.239 102 233 102ZM253 97C253 99.7614 250.761 102 248 102C245.239 102 243 99.7614 243 97C243 94.2386 245.239 92 248 92C250.761 92 253 94.2386 253 97ZM263 102C265.761 102 268 99.7614 268 97C268 94.2386 265.761 92 263 92C260.239 92 258 94.2386 258 97C258 99.7614 260.239 102 263 102ZM313 97C313 99.7614 310.761 102 308 102C305.239 102 303 99.7614 303 97C303 94.2386 305.239 92 308 92C310.761 92 313 94.2386 313 97ZM278 102C280.761 102 283 99.7614 283 97C283 94.2386 280.761 92 278 92C275.239 92 273 94.2386 273 97C273 99.7614 275.239 102 278 102ZM328 97C328 99.7614 325.761 102 323 102C320.239 102 318 99.7614 318 97C318 94.2386 320.239 92 323 92C325.761 92 328 94.2386 328 97ZM293 102C295.761 102 298 99.7614 298 97C298 94.2386 295.761 92 293 92C290.239 92 288 94.2386 288 97C288 99.7614 290.239 102 293 102ZM343 97C343 99.7614 340.761 102 338 102C335.239 102 333 99.7614 333 97C333 94.2386 335.239 92 338 92C340.761 92 343 94.2386 343 97ZM158 117C160.761 117 163 114.761 163 112C163 109.239 160.761 107 158 107C155.239 107 153 109.239 153 112C153 114.761 155.239 117 158 117ZM178 112C178 114.761 175.761 117 173 117C170.239 117 168 114.761 168 112C168 109.239 170.239 107 173 107C175.761 107 178 109.239 178 112ZM188 117C190.761 117 193 114.761 193 112C193 109.239 190.761 107 188 107C185.239 107 183 109.239 183 112C183 114.761 185.239 117 188 117ZM208 112C208 114.761 205.761 117 203 117C200.239 117 198 114.761 198 112C198 109.239 200.239 107 203 107C205.761 107 208 109.239 208 112ZM218 117C220.761 117 223 114.761 223 112C223 109.239 220.761 107 218 107C215.239 107 213 109.239 213 112C213 114.761 215.239 117 218 117ZM238 112C238 114.761 235.761 117 233 117C230.239 117 228 114.761 228 112C228 109.239 230.239 107 233 107C235.761 107 238 109.239 238 112ZM248 117C250.761 117 253 114.761 253 112C253 109.239 250.761 107 248 107C245.239 107 243 109.239 243 112C243 114.761 245.239 117 248 117ZM268 112C268 114.761 265.761 117 263 117C260.239 117 258 114.761 258 112C258 109.239 260.239 107 263 107C265.761 107 268 109.239 268 112ZM308 117C310.761 117 313 114.761 313 112C313 109.239 310.761 107 308 107C305.239 107 303 109.239 303 112C303 114.761 305.239 117 308 117ZM283 112C283 114.761 280.761 117 278 117C275.239 117 273 114.761 273 112C273 109.239 275.239 107 278 107C280.761 107 283 109.239 283 112ZM323 117C325.761 117 328 114.761 328 112C328 109.239 325.761 107 323 107C320.239 107 318 109.239 318 112C318 114.761 320.239 117 323 117ZM298 112C298 114.761 295.761 117 293 117C290.239 117 288 114.761 288 112C288 109.239 290.239 107 293 107C295.761 107 298 109.239 298 112ZM338 117C340.761 117 343 114.761 343 112C343 109.239 340.761 107 338 107C335.239 107 333 109.239 333 112C333 114.761 335.239 117 338 117ZM163 127C163 129.761 160.761 132 158 132C155.239 132 153 129.761 153 127C153 124.239 155.239 122 158 122C160.761 122 163 124.239 163 127ZM173 132C175.761 132 178 129.761 178 127C178 124.239 175.761 122 173 122C170.239 122 168 124.239 168 127C168 129.761 170.239 132 173 132ZM193 127C193 129.761 190.761 132 188 132C185.239 132 183 129.761 183 127C183 124.239 185.239 122 188 122C190.761 122 193 124.239 193 127ZM203 132C205.761 132 208 129.761 208 127C208 124.239 205.761 122 203 122C200.239 122 198 124.239 198 127C198 129.761 200.239 132 203 132ZM223 127C223 129.761 220.761 132 218 132C215.239 132 213 129.761 213 127C213 124.239 215.239 122 218 122C220.761 122 223 124.239 223 127ZM233 132C235.761 132 238 129.761 238 127C238 124.239 235.761 122 233 122C230.239 122 228 124.239 228 127C228 129.761 230.239 132 233 132ZM253 127C253 129.761 250.761 132 248 132C245.239 132 243 129.761 243 127C243 124.239 245.239 122 248 122C250.761 122 253 124.239 253 127ZM263 132C265.761 132 268 129.761 268 127C268 124.239 265.761 122 263 122C260.239 122 258 124.239 258 127C258 129.761 260.239 132 263 132ZM313 127C313 129.761 310.761 132 308 132C305.239 132 303 129.761 303 127C303 124.239 305.239 122 308 122C310.761 122 313 124.239 313 127ZM278 132C280.761 132 283 129.761 283 127C283 124.239 280.761 122 278 122C275.239 122 273 124.239 273 127C273 129.761 275.239 132 278 132ZM328 127C328 129.761 325.761 132 323 132C320.239 132 318 129.761 318 127C318 124.239 320.239 122 323 122C325.761 122 328 124.239 328 127ZM293 132C295.761 132 298 129.761 298 127C298 124.239 295.761 122 293 122C290.239 122 288 124.239 288 127C288 129.761 290.239 132 293 132ZM343 127C343 129.761 340.761 132 338 132C335.239 132 333 129.761 333 127C333 124.239 335.239 122 338 122C340.761 122 343 124.239 343 127ZM158 147C160.761 147 163 144.761 163 142C163 139.239 160.761 137 158 137C155.239 137 153 139.239 153 142C153 144.761 155.239 147 158 147ZM178 142C178 144.761 175.761 147 173 147C170.239 147 168 144.761 168 142C168 139.239 170.239 137 173 137C175.761 137 178 139.239 178 142ZM188 147C190.761 147 193 144.761 193 142C193 139.239 190.761 137 188 137C185.239 137 183 139.239 183 142C183 144.761 185.239 147 188 147ZM208 142C208 144.761 205.761 147 203 147C200.239 147 198 144.761 198 142C198 139.239 200.239 137 203 137C205.761 137 208 139.239 208 142ZM218 147C220.761 147 223 144.761 223 142C223 139.239 220.761 137 218 137C215.239 137 213 139.239 213 142C213 144.761 215.239 147 218 147ZM238 142C238 144.761 235.761 147 233 147C230.239 147 228 144.761 228 142C228 139.239 230.239 137 233 137C235.761 137 238 139.239 238 142ZM248 147C250.761 147 253 144.761 253 142C253 139.239 250.761 137 248 137C245.239 137 243 139.239 243 142C243 144.761 245.239 147 248 147ZM268 142C268 144.761 265.761 147 263 147C260.239 147 258 144.761 258 142C258 139.239 260.239 137 263 137C265.761 137 268 139.239 268 142ZM308 147C310.761 147 313 144.761 313 142C313 139.239 310.761 137 308 137C305.239 137 303 139.239 303 142C303 144.761 305.239 147 308 147ZM283 142C283 144.761 280.761 147 278 147C275.239 147 273 144.761 273 142C273 139.239 275.239 137 278 137C280.761 137 283 139.239 283 142ZM323 147C325.761 147 328 144.761 328 142C328 139.239 325.761 137 323 137C320.239 137 318 139.239 318 142C318 144.761 320.239 147 323 147ZM298 142C298 144.761 295.761 147 293 147C290.239 147 288 144.761 288 142C288 139.239 290.239 137 293 137C295.761 137 298 139.239 298 142ZM338 147C340.761 147 343 144.761 343 142C343 139.239 340.761 137 338 137C335.239 137 333 139.239 333 142C333 144.761 335.239 147 338 147Z" fill="#666666"/>
</svg>
