<svg width="145" height="145" viewBox="0 0 145 145" fill="none" xmlns="http://www.w3.org/2000/svg">
<path d="M0 12C0 5.37258 5.37258 0 12 0H145V145H22C9.84974 145 0 135.15 0 123V12Z" fill="#3E3C3D"/>
<ellipse cx="73" cy="72.5" rx="53" ry="53.5" fill="#141213"/>
<path d="M0 115H30V145H22C9.84974 145 0 135.15 0 123V115Z" fill="#7A7A7A"/>
<rect x="115" y="115" width="30" height="30" fill="#7A7A7A"/>
<rect x="115" width="30" height="30" fill="#7A7A7A"/>
<path d="M0 0H30V30H0V0Z" fill="#7A7A7A"/>
<path fill-rule="evenodd" clip-rule="evenodd" d="M0 0H145V145H22C9.84974 145 0 135.15 0 123V0ZM27.0663 6.76668C27.0663 9.43606 24.9023 11.6 22.2329 11.6C19.5636 11.6 17.3996 9.43606 17.3996 6.76668C17.3996 4.0973 19.5636 1.93335 22.2329 1.93335C24.9023 1.93335 27.0663 4.0973 27.0663 6.76668ZM36.7329 11.6C39.4023 11.6 41.5663 9.43606 41.5663 6.76668C41.5663 4.0973 39.4023 1.93335 36.7329 1.93335C34.0636 1.93335 31.8996 4.0973 31.8996 6.76668C31.8996 9.43606 34.0636 11.6 36.7329 11.6ZM56.0663 6.76668C56.0663 9.43606 53.9023 11.6 51.2329 11.6C48.5636 11.6 46.3996 9.43606 46.3996 6.76668C46.3996 4.0973 48.5636 1.93335 51.2329 1.93335C53.9023 1.93335 56.0663 4.0973 56.0663 6.76668ZM65.7329 11.6C68.4023 11.6 70.5663 9.43606 70.5663 6.76668C70.5663 4.0973 68.4023 1.93335 65.7329 1.93335C63.0636 1.93335 60.8996 4.0973 60.8996 6.76668C60.8996 9.43606 63.0636 11.6 65.7329 11.6ZM85.0663 6.76668C85.0663 9.43606 82.9023 11.6 80.2329 11.6C77.5636 11.6 75.3996 9.43606 75.3996 6.76668C75.3996 4.0973 77.5636 1.93335 80.2329 1.93335C82.9023 1.93335 85.0663 4.0973 85.0663 6.76668ZM94.7329 11.6C97.4023 11.6 99.5663 9.43606 99.5663 6.76668C99.5663 4.0973 97.4023 1.93335 94.7329 1.93335C92.0636 1.93335 89.8996 4.0973 89.8996 6.76668C89.8996 9.43606 92.0636 11.6 94.7329 11.6ZM114.066 6.76668C114.066 9.43606 111.902 11.6 109.233 11.6C106.564 11.6 104.4 9.43606 104.4 6.76668C104.4 4.0973 106.564 1.93335 109.233 1.93335C111.902 1.93335 114.066 4.0973 114.066 6.76668ZM123.733 11.6C126.402 11.6 128.566 9.43606 128.566 6.76668C128.566 4.0973 126.402 1.93335 123.733 1.93335C121.064 1.93335 118.9 4.0973 118.9 6.76668C118.9 9.43606 121.064 11.6 123.733 11.6ZM143.066 6.76668C143.066 9.43606 140.902 11.6 138.233 11.6C135.564 11.6 133.4 9.43606 133.4 6.76668C133.4 4.0973 135.564 1.93335 138.233 1.93335C140.902 1.93335 143.066 4.0973 143.066 6.76668ZM7.73294 26.1C10.4023 26.1 12.5663 23.9361 12.5663 21.2667C12.5663 18.5973 10.4023 16.4333 7.73294 16.4333C5.06357 16.4333 2.89961 18.5973 2.89961 21.2667C2.89961 23.9361 5.06357 26.1 7.73294 26.1ZM27.0663 21.2667C27.0663 23.9361 24.9023 26.1 22.2329 26.1C19.5636 26.1 17.3996 23.9361 17.3996 21.2667C17.3996 18.5973 19.5636 16.4333 22.2329 16.4333C24.9023 16.4333 27.0663 18.5973 27.0663 21.2667ZM36.7329 26.1C39.4023 26.1 41.5663 23.9361 41.5663 21.2667C41.5663 18.5973 39.4023 16.4333 36.7329 16.4333C34.0636 16.4333 31.8996 18.5973 31.8996 21.2667C31.8996 23.9361 34.0636 26.1 36.7329 26.1ZM56.0663 21.2667C56.0663 23.9361 53.9023 26.1 51.2329 26.1C48.5636 26.1 46.3996 23.9361 46.3996 21.2667C46.3996 18.5973 48.5636 16.4333 51.2329 16.4333C53.9023 16.4333 56.0663 18.5973 56.0663 21.2667ZM65.7329 26.1C68.4023 26.1 70.5663 23.9361 70.5663 21.2667C70.5663 18.5973 68.4023 16.4333 65.7329 16.4333C63.0636 16.4333 60.8996 18.5973 60.8996 21.2667C60.8996 23.9361 63.0636 26.1 65.7329 26.1ZM85.0663 21.2667C85.0663 23.9361 82.9023 26.1 80.2329 26.1C77.5636 26.1 75.3996 23.9361 75.3996 21.2667C75.3996 18.5973 77.5636 16.4333 80.2329 16.4333C82.9023 16.4333 85.0663 18.5973 85.0663 21.2667ZM94.7329 26.1C97.4023 26.1 99.5663 23.9361 99.5663 21.2667C99.5663 18.5973 97.4023 16.4333 94.7329 16.4333C92.0636 16.4333 89.8996 18.5973 89.8996 21.2667C89.8996 23.9361 92.0636 26.1 94.7329 26.1ZM114.066 21.2667C114.066 23.9361 111.902 26.1 109.233 26.1C106.564 26.1 104.4 23.9361 104.4 21.2667C104.4 18.5973 106.564 16.4333 109.233 16.4333C111.902 16.4333 114.066 18.5973 114.066 21.2667ZM123.733 26.1C126.402 26.1 128.566 23.9361 128.566 21.2667C128.566 18.5973 126.402 16.4333 123.733 16.4333C121.064 16.4333 118.9 18.5973 118.9 21.2667C118.9 23.9361 121.064 26.1 123.733 26.1ZM143.066 21.2667C143.066 23.9361 140.902 26.1 138.233 26.1C135.564 26.1 133.4 23.9361 133.4 21.2667C133.4 18.5973 135.564 16.4333 138.233 16.4333C140.902 16.4333 143.066 18.5973 143.066 21.2667ZM7.73294 40.6C10.4023 40.6 12.5663 38.4361 12.5663 35.7667C12.5663 33.0973 10.4023 30.9333 7.73294 30.9333C5.06357 30.9333 2.89961 33.0973 2.89961 35.7667C2.89961 38.4361 5.06357 40.6 7.73294 40.6ZM27.0663 35.7667C27.0663 38.4361 24.9023 40.6 22.2329 40.6C19.5636 40.6 17.3996 38.4361 17.3996 35.7667C17.3996 33.0973 19.5636 30.9333 22.2329 30.9333C24.9023 30.9333 27.0663 33.0973 27.0663 35.7667ZM36.7329 40.6C39.4023 40.6 41.5663 38.4361 41.5663 35.7667C41.5663 33.0973 39.4023 30.9333 36.7329 30.9333C34.0636 30.9333 31.8996 33.0973 31.8996 35.7667C31.8996 38.4361 34.0636 40.6 36.7329 40.6ZM56.0663 35.7667C56.0663 38.4361 53.9023 40.6 51.2329 40.6C48.5636 40.6 46.3996 38.4361 46.3996 35.7667C46.3996 33.0973 48.5636 30.9333 51.2329 30.9333C53.9023 30.9333 56.0663 33.0973 56.0663 35.7667ZM65.7329 40.6C68.4023 40.6 70.5663 38.4361 70.5663 35.7667C70.5663 33.0973 68.4023 30.9333 65.7329 30.9333C63.0636 30.9333 60.8996 33.0973 60.8996 35.7667C60.8996 38.4361 63.0636 40.6 65.7329 40.6ZM85.0663 35.7667C85.0663 38.4361 82.9023 40.6 80.2329 40.6C77.5636 40.6 75.3996 38.4361 75.3996 35.7667C75.3996 33.0973 77.5636 30.9333 80.2329 30.9333C82.9023 30.9333 85.0663 33.0973 85.0663 35.7667ZM94.7329 40.6C97.4023 40.6 99.5663 38.4361 99.5663 35.7667C99.5663 33.0973 97.4023 30.9333 94.7329 30.9333C92.0636 30.9333 89.8996 33.0973 89.8996 35.7667C89.8996 38.4361 92.0636 40.6 94.7329 40.6ZM114.066 35.7667C114.066 38.4361 111.902 40.6 109.233 40.6C106.564 40.6 104.4 38.4361 104.4 35.7667C104.4 33.0973 106.564 30.9333 109.233 30.9333C111.902 30.9333 114.066 33.0973 114.066 35.7667ZM123.733 40.6C126.402 40.6 128.566 38.4361 128.566 35.7667C128.566 33.0973 126.402 30.9333 123.733 30.9333C121.064 30.9333 118.9 33.0973 118.9 35.7667C118.9 38.4361 121.064 40.6 123.733 40.6ZM143.066 35.7667C143.066 38.4361 140.902 40.6 138.233 40.6C135.564 40.6 133.4 38.4361 133.4 35.7667C133.4 33.0973 135.564 30.9333 138.233 30.9333C140.902 30.9333 143.066 33.0973 143.066 35.7667ZM7.73294 55.1C10.4023 55.1 12.5663 52.9361 12.5663 50.2667C12.5663 47.5973 10.4023 45.4333 7.73294 45.4333C5.06357 45.4333 2.89961 47.5973 2.89961 50.2667C2.89961 52.9361 5.06357 55.1 7.73294 55.1ZM27.0663 50.2667C27.0663 52.9361 24.9023 55.1 22.2329 55.1C19.5636 55.1 17.3996 52.9361 17.3996 50.2667C17.3996 47.5973 19.5636 45.4333 22.2329 45.4333C24.9023 45.4333 27.0663 47.5973 27.0663 50.2667ZM36.7329 55.1C39.4023 55.1 41.5663 52.9361 41.5663 50.2667C41.5663 47.5973 39.4023 45.4333 36.7329 45.4333C34.0636 45.4333 31.8996 47.5973 31.8996 50.2667C31.8996 52.9361 34.0636 55.1 36.7329 55.1ZM56.0663 50.2667C56.0663 52.9361 53.9023 55.1 51.2329 55.1C48.5636 55.1 46.3996 52.9361 46.3996 50.2667C46.3996 47.5973 48.5636 45.4333 51.2329 45.4333C53.9023 45.4333 56.0663 47.5973 56.0663 50.2667ZM65.7329 55.1C68.4023 55.1 70.5663 52.9361 70.5663 50.2667C70.5663 47.5973 68.4023 45.4333 65.7329 45.4333C63.0636 45.4333 60.8996 47.5973 60.8996 50.2667C60.8996 52.9361 63.0636 55.1 65.7329 55.1ZM85.0663 50.2667C85.0663 52.9361 82.9023 55.1 80.2329 55.1C77.5636 55.1 75.3996 52.9361 75.3996 50.2667C75.3996 47.5973 77.5636 45.4333 80.2329 45.4333C82.9023 45.4333 85.0663 47.5973 85.0663 50.2667ZM94.7329 55.1C97.4023 55.1 99.5663 52.9361 99.5663 50.2667C99.5663 47.5973 97.4023 45.4333 94.7329 45.4333C92.0636 45.4333 89.8996 47.5973 89.8996 50.2667C89.8996 52.9361 92.0636 55.1 94.7329 55.1ZM114.066 50.2667C114.066 52.9361 111.902 55.1 109.233 55.1C106.564 55.1 104.4 52.9361 104.4 50.2667C104.4 47.5973 106.564 45.4333 109.233 45.4333C111.902 45.4333 114.066 47.5973 114.066 50.2667ZM123.733 55.1C126.402 55.1 128.566 52.9361 128.566 50.2667C128.566 47.5973 126.402 45.4333 123.733 45.4333C121.064 45.4333 118.9 47.5973 118.9 50.2667C118.9 52.9361 121.064 55.1 123.733 55.1ZM143.066 50.2667C143.066 52.9361 140.902 55.1 138.233 55.1C135.564 55.1 133.4 52.9361 133.4 50.2667C133.4 47.5973 135.564 45.4333 138.233 45.4333C140.902 45.4333 143.066 47.5973 143.066 50.2667ZM7.73294 69.6C10.4023 69.6 12.5663 67.4361 12.5663 64.7667C12.5663 62.0973 10.4023 59.9333 7.73294 59.9333C5.06357 59.9333 2.89961 62.0973 2.89961 64.7667C2.89961 67.4361 5.06357 69.6 7.73294 69.6ZM27.0663 64.7667C27.0663 67.4361 24.9023 69.6 22.2329 69.6C19.5636 69.6 17.3996 67.4361 17.3996 64.7667C17.3996 62.0973 19.5636 59.9333 22.2329 59.9333C24.9023 59.9333 27.0663 62.0973 27.0663 64.7667ZM36.7329 69.6C39.4023 69.6 41.5663 67.4361 41.5663 64.7667C41.5663 62.0973 39.4023 59.9333 36.7329 59.9333C34.0636 59.9333 31.8996 62.0973 31.8996 64.7667C31.8996 67.4361 34.0636 69.6 36.7329 69.6ZM56.0663 64.7667C56.0663 67.4361 53.9023 69.6 51.2329 69.6C48.5636 69.6 46.3996 67.4361 46.3996 64.7667C46.3996 62.0973 48.5636 59.9333 51.2329 59.9333C53.9023 59.9333 56.0663 62.0973 56.0663 64.7667ZM65.7329 69.6C68.4023 69.6 70.5663 67.4361 70.5663 64.7667C70.5663 62.0973 68.4023 59.9333 65.7329 59.9333C63.0636 59.9333 60.8996 62.0973 60.8996 64.7667C60.8996 67.4361 63.0636 69.6 65.7329 69.6ZM85.0663 64.7667C85.0663 67.4361 82.9023 69.6 80.2329 69.6C77.5636 69.6 75.3996 67.4361 75.3996 64.7667C75.3996 62.0973 77.5636 59.9333 80.2329 59.9333C82.9023 59.9333 85.0663 62.0973 85.0663 64.7667ZM94.7329 69.6C97.4023 69.6 99.5663 67.4361 99.5663 64.7667C99.5663 62.0973 97.4023 59.9333 94.7329 59.9333C92.0636 59.9333 89.8996 62.0973 89.8996 64.7667C89.8996 67.4361 92.0636 69.6 94.7329 69.6ZM114.066 64.7667C114.066 67.4361 111.902 69.6 109.233 69.6C106.564 69.6 104.4 67.4361 104.4 64.7667C104.4 62.0973 106.564 59.9333 109.233 59.9333C111.902 59.9333 114.066 62.0973 114.066 64.7667ZM123.733 69.6C126.402 69.6 128.566 67.4361 128.566 64.7667C128.566 62.0973 126.402 59.9333 123.733 59.9333C121.064 59.9333 118.9 62.0973 118.9 64.7667C118.9 67.4361 121.064 69.6 123.733 69.6ZM143.066 64.7667C143.066 67.4361 140.902 69.6 138.233 69.6C135.564 69.6 133.4 67.4361 133.4 64.7667C133.4 62.0973 135.564 59.9333 138.233 59.9333C140.902 59.9333 143.066 62.0973 143.066 64.7667ZM7.73294 84.1C10.4023 84.1 12.5663 81.9361 12.5663 79.2667C12.5663 76.5973 10.4023 74.4333 7.73294 74.4333C5.06357 74.4333 2.89961 76.5973 2.89961 79.2667C2.89961 81.9361 5.06357 84.1 7.73294 84.1ZM27.0663 79.2667C27.0663 81.9361 24.9023 84.1 22.2329 84.1C19.5636 84.1 17.3996 81.9361 17.3996 79.2667C17.3996 76.5973 19.5636 74.4333 22.2329 74.4333C24.9023 74.4333 27.0663 76.5973 27.0663 79.2667ZM36.7329 84.1C39.4023 84.1 41.5663 81.9361 41.5663 79.2667C41.5663 76.5973 39.4023 74.4333 36.7329 74.4333C34.0636 74.4333 31.8996 76.5973 31.8996 79.2667C31.8996 81.9361 34.0636 84.1 36.7329 84.1ZM56.0663 79.2667C56.0663 81.9361 53.9023 84.1 51.2329 84.1C48.5636 84.1 46.3996 81.9361 46.3996 79.2667C46.3996 76.5973 48.5636 74.4333 51.2329 74.4333C53.9023 74.4333 56.0663 76.5973 56.0663 79.2667ZM65.7329 84.1C68.4023 84.1 70.5663 81.9361 70.5663 79.2667C70.5663 76.5973 68.4023 74.4333 65.7329 74.4333C63.0636 74.4333 60.8996 76.5973 60.8996 79.2667C60.8996 81.9361 63.0636 84.1 65.7329 84.1ZM85.0663 79.2667C85.0663 81.9361 82.9023 84.1 80.2329 84.1C77.5636 84.1 75.3996 81.9361 75.3996 79.2667C75.3996 76.5973 77.5636 74.4333 80.2329 74.4333C82.9023 74.4333 85.0663 76.5973 85.0663 79.2667ZM94.7329 84.1C97.4023 84.1 99.5663 81.9361 99.5663 79.2667C99.5663 76.5973 97.4023 74.4333 94.7329 74.4333C92.0636 74.4333 89.8996 76.5973 89.8996 79.2667C89.8996 81.9361 92.0636 84.1 94.7329 84.1ZM114.066 79.2667C114.066 81.9361 111.902 84.1 109.233 84.1C106.564 84.1 104.4 81.9361 104.4 79.2667C104.4 76.5973 106.564 74.4333 109.233 74.4333C111.902 74.4333 114.066 76.5973 114.066 79.2667ZM123.733 84.1C126.402 84.1 128.566 81.9361 128.566 79.2667C128.566 76.5973 126.402 74.4333 123.733 74.4333C121.064 74.4333 118.9 76.5973 118.9 79.2667C118.9 81.9361 121.064 84.1 123.733 84.1ZM143.066 79.2667C143.066 81.9361 140.902 84.1 138.233 84.1C135.564 84.1 133.4 81.9361 133.4 79.2667C133.4 76.5973 135.564 74.4333 138.233 74.4333C140.902 74.4333 143.066 76.5973 143.066 79.2667ZM7.73294 98.6C10.4023 98.6 12.5663 96.4361 12.5663 93.7667C12.5663 91.0973 10.4023 88.9333 7.73294 88.9333C5.06357 88.9333 2.89961 91.0973 2.89961 93.7667C2.89961 96.4361 5.06357 98.6 7.73294 98.6ZM27.0663 93.7667C27.0663 96.4361 24.9023 98.6 22.2329 98.6C19.5636 98.6 17.3996 96.4361 17.3996 93.7667C17.3996 91.0973 19.5636 88.9333 22.2329 88.9333C24.9023 88.9333 27.0663 91.0973 27.0663 93.7667ZM36.7329 98.6C39.4023 98.6 41.5663 96.4361 41.5663 93.7667C41.5663 91.0973 39.4023 88.9333 36.7329 88.9333C34.0636 88.9333 31.8996 91.0973 31.8996 93.7667C31.8996 96.4361 34.0636 98.6 36.7329 98.6ZM56.0663 93.7667C56.0663 96.4361 53.9023 98.6 51.2329 98.6C48.5636 98.6 46.3996 96.4361 46.3996 93.7667C46.3996 91.0973 48.5636 88.9333 51.2329 88.9333C53.9023 88.9333 56.0663 91.0973 56.0663 93.7667ZM65.7329 98.6C68.4023 98.6 70.5663 96.4361 70.5663 93.7667C70.5663 91.0973 68.4023 88.9333 65.7329 88.9333C63.0636 88.9333 60.8996 91.0973 60.8996 93.7667C60.8996 96.4361 63.0636 98.6 65.7329 98.6ZM85.0663 93.7667C85.0663 96.4361 82.9023 98.6 80.2329 98.6C77.5636 98.6 75.3996 96.4361 75.3996 93.7667C75.3996 91.0973 77.5636 88.9333 80.2329 88.9333C82.9023 88.9333 85.0663 91.0973 85.0663 93.7667ZM94.7329 98.6C97.4023 98.6 99.5663 96.4361 99.5663 93.7667C99.5663 91.0973 97.4023 88.9333 94.7329 88.9333C92.0636 88.9333 89.8996 91.0973 89.8996 93.7667C89.8996 96.4361 92.0636 98.6 94.7329 98.6ZM114.066 93.7667C114.066 96.4361 111.902 98.6 109.233 98.6C106.564 98.6 104.4 96.4361 104.4 93.7667C104.4 91.0973 106.564 88.9333 109.233 88.9333C111.902 88.9333 114.066 91.0973 114.066 93.7667ZM123.733 98.6C126.402 98.6 128.566 96.4361 128.566 93.7667C128.566 91.0973 126.402 88.9333 123.733 88.9333C121.064 88.9333 118.9 91.0973 118.9 93.7667C118.9 96.4361 121.064 98.6 123.733 98.6ZM143.066 93.7667C143.066 96.4361 140.902 98.6 138.233 98.6C135.564 98.6 133.4 96.4361 133.4 93.7667C133.4 91.0973 135.564 88.9333 138.233 88.9333C140.902 88.9333 143.066 91.0973 143.066 93.7667ZM7.73294 113.1C10.4023 113.1 12.5663 110.936 12.5663 108.267C12.5663 105.597 10.4023 103.433 7.73294 103.433C5.06357 103.433 2.89961 105.597 2.89961 108.267C2.89961 110.936 5.06357 113.1 7.73294 113.1ZM27.0663 108.267C27.0663 110.936 24.9023 113.1 22.2329 113.1C19.5636 113.1 17.3996 110.936 17.3996 108.267C17.3996 105.597 19.5636 103.433 22.2329 103.433C24.9023 103.433 27.0663 105.597 27.0663 108.267ZM36.7329 113.1C39.4023 113.1 41.5663 110.936 41.5663 108.267C41.5663 105.597 39.4023 103.433 36.7329 103.433C34.0636 103.433 31.8996 105.597 31.8996 108.267C31.8996 110.936 34.0636 113.1 36.7329 113.1ZM56.0663 108.267C56.0663 110.936 53.9023 113.1 51.2329 113.1C48.5636 113.1 46.3996 110.936 46.3996 108.267C46.3996 105.597 48.5636 103.433 51.2329 103.433C53.9023 103.433 56.0663 105.597 56.0663 108.267ZM65.7329 113.1C68.4023 113.1 70.5663 110.936 70.5663 108.267C70.5663 105.597 68.4023 103.433 65.7329 103.433C63.0636 103.433 60.8996 105.597 60.8996 108.267C60.8996 110.936 63.0636 113.1 65.7329 113.1ZM85.0663 108.267C85.0663 110.936 82.9023 113.1 80.2329 113.1C77.5636 113.1 75.3996 110.936 75.3996 108.267C75.3996 105.597 77.5636 103.433 80.2329 103.433C82.9023 103.433 85.0663 105.597 85.0663 108.267ZM94.7329 113.1C97.4023 113.1 99.5663 110.936 99.5663 108.267C99.5663 105.597 97.4023 103.433 94.7329 103.433C92.0636 103.433 89.8996 105.597 89.8996 108.267C89.8996 110.936 92.0636 113.1 94.7329 113.1ZM114.066 108.267C114.066 110.936 111.902 113.1 109.233 113.1C106.564 113.1 104.4 110.936 104.4 108.267C104.4 105.597 106.564 103.433 109.233 103.433C111.902 103.433 114.066 105.597 114.066 108.267ZM123.733 113.1C126.402 113.1 128.566 110.936 128.566 108.267C128.566 105.597 126.402 103.433 123.733 103.433C121.064 103.433 118.9 105.597 118.9 108.267C118.9 110.936 121.064 113.1 123.733 113.1ZM143.066 108.267C143.066 110.936 140.902 113.1 138.233 113.1C135.564 113.1 133.4 110.936 133.4 108.267C133.4 105.597 135.564 103.433 138.233 103.433C140.902 103.433 143.066 105.597 143.066 108.267ZM7.73294 127.6C10.4023 127.6 12.5663 125.436 12.5663 122.767C12.5663 120.097 10.4023 117.933 7.73294 117.933C5.06357 117.933 2.89961 120.097 2.89961 122.767C2.89961 125.436 5.06357 127.6 7.73294 127.6ZM27.0663 122.767C27.0663 125.436 24.9023 127.6 22.2329 127.6C19.5636 127.6 17.3996 125.436 17.3996 122.767C17.3996 120.097 19.5636 117.933 22.2329 117.933C24.9023 117.933 27.0663 120.097 27.0663 122.767ZM36.7329 127.6C39.4023 127.6 41.5663 125.436 41.5663 122.767C41.5663 120.097 39.4023 117.933 36.7329 117.933C34.0636 117.933 31.8996 120.097 31.8996 122.767C31.8996 125.436 34.0636 127.6 36.7329 127.6ZM56.0663 122.767C56.0663 125.436 53.9023 127.6 51.2329 127.6C48.5636 127.6 46.3996 125.436 46.3996 122.767C46.3996 120.097 48.5636 117.933 51.2329 117.933C53.9023 117.933 56.0663 120.097 56.0663 122.767ZM65.7329 127.6C68.4023 127.6 70.5663 125.436 70.5663 122.767C70.5663 120.097 68.4023 117.933 65.7329 117.933C63.0636 117.933 60.8996 120.097 60.8996 122.767C60.8996 125.436 63.0636 127.6 65.7329 127.6ZM85.0663 122.767C85.0663 125.436 82.9023 127.6 80.2329 127.6C77.5636 127.6 75.3996 125.436 75.3996 122.767C75.3996 120.097 77.5636 117.933 80.2329 117.933C82.9023 117.933 85.0663 120.097 85.0663 122.767ZM94.7329 127.6C97.4023 127.6 99.5663 125.436 99.5663 122.767C99.5663 120.097 97.4023 117.933 94.7329 117.933C92.0636 117.933 89.8996 120.097 89.8996 122.767C89.8996 125.436 92.0636 127.6 94.7329 127.6ZM114.066 122.767C114.066 125.436 111.902 127.6 109.233 127.6C106.564 127.6 104.4 125.436 104.4 122.767C104.4 120.097 106.564 117.933 109.233 117.933C111.902 117.933 114.066 120.097 114.066 122.767ZM123.733 127.6C126.402 127.6 128.566 125.436 128.566 122.767C128.566 120.097 126.402 117.933 123.733 117.933C121.064 117.933 118.9 120.097 118.9 122.767C118.9 125.436 121.064 127.6 123.733 127.6ZM143.066 122.767C143.066 125.436 140.902 127.6 138.233 127.6C135.564 127.6 133.4 125.436 133.4 122.767C133.4 120.097 135.564 117.933 138.233 117.933C140.902 117.933 143.066 120.097 143.066 122.767ZM22.2329 142.1C24.9023 142.1 27.0663 139.936 27.0663 137.267C27.0663 134.597 24.9023 132.433 22.2329 132.433C19.5636 132.433 17.3996 134.597 17.3996 137.267C17.3996 139.936 19.5636 142.1 22.2329 142.1ZM41.5663 137.267C41.5663 139.936 39.4023 142.1 36.7329 142.1C34.0636 142.1 31.8996 139.936 31.8996 137.267C31.8996 134.597 34.0636 132.433 36.7329 132.433C39.4023 132.433 41.5663 134.597 41.5663 137.267ZM51.2329 142.1C53.9023 142.1 56.0663 139.936 56.0663 137.267C56.0663 134.597 53.9023 132.433 51.2329 132.433C48.5636 132.433 46.3996 134.597 46.3996 137.267C46.3996 139.936 48.5636 142.1 51.2329 142.1ZM70.5663 137.267C70.5663 139.936 68.4023 142.1 65.7329 142.1C63.0636 142.1 60.8996 139.936 60.8996 137.267C60.8996 134.597 63.0636 132.433 65.7329 132.433C68.4023 132.433 70.5663 134.597 70.5663 137.267ZM80.2329 142.1C82.9023 142.1 85.0663 139.936 85.0663 137.267C85.0663 134.597 82.9023 132.433 80.2329 132.433C77.5636 132.433 75.3996 134.597 75.3996 137.267C75.3996 139.936 77.5636 142.1 80.2329 142.1ZM99.5663 137.267C99.5663 139.936 97.4023 142.1 94.7329 142.1C92.0636 142.1 89.8996 139.936 89.8996 137.267C89.8996 134.597 92.0636 132.433 94.7329 132.433C97.4023 132.433 99.5663 134.597 99.5663 137.267ZM109.233 142.1C111.902 142.1 114.066 139.936 114.066 137.267C114.066 134.597 111.902 132.433 109.233 132.433C106.564 132.433 104.4 134.597 104.4 137.267C104.4 139.936 106.564 142.1 109.233 142.1ZM128.566 137.267C128.566 139.936 126.402 142.1 123.733 142.1C121.064 142.1 118.9 139.936 118.9 137.267C118.9 134.597 121.064 132.433 123.733 132.433C126.402 132.433 128.566 134.597 128.566 137.267ZM138.233 142.1C140.902 142.1 143.066 139.936 143.066 137.267C143.066 134.597 140.902 132.433 138.233 132.433C135.564 132.433 133.4 134.597 133.4 137.267C133.4 139.936 135.564 142.1 138.233 142.1Z" fill="#716F70"/>
</svg>
